<?xml version="1.0" encoding="UTF-8"?>
<svg id="Layer_1" xmlns="http://www.w3.org/2000/svg" version="1.1" viewBox="0 0 851.03 228.84">
  <!-- Generator: Adobe Illustrator 29.0.1, SVG Export Plug-In . SVG Version: 2.1.0 Build 192)  -->
  <defs>
    <style>
      .st0 {
        opacity: .11;
      }

      .st1 {
        fill: #2a2b2d;
      }

      .st2 {
        fill: #fff;
      }

      .st3 {
        fill: #231f20;
      }

      .st4 {
        fill: #099ecf;
      }

      .st5 {
        fill: #67b548;
      }

      .st6 {
        fill: #1a1a1a;
      }

      .st7 {
        fill: #1d1d1d;
      }

      .st8 {
        fill: #58595b;
      }

      .st9 {
        fill: #959595;
      }

      .st10 {
        fill: none;
        stroke: #191919;
        stroke-miterlimit: 10;
        stroke-width: 4px;
      }

      .st11 {
        fill: #f3a623;
      }

      .st12 {
        fill: #ba2327;
      }
    </style>
  </defs>
  <g>
    <rect class="st7" x="305.34" y="180.03" width="10.08" height="5.65" transform="translate(301.67 -177.28) rotate(58.11)"/>
    <rect class="st1" x="311.05" y="183.21" width="2.64" height="5.58" transform="translate(305.28 -177.49) rotate(58.11)"/>
    <rect class="st8" x="307.12" y="176.89" width="2.64" height="5.58" transform="translate(298.06 -177.13) rotate(58.11)"/>
    <path class="st7" d="M298.67,192.59c.13-.08.29-.04.37.09l.42.68.42-.26-3.11-5-1.19.74.42.68c.08.13.04.29-.09.37s-.29.04-.37-.09l-.42-.68-.42.26.42.68c.08.13.04.29-.09.37-.13.08-.29.04-.37-.09l-.42-.68-.65.41,3.11,5,.54-.34-.42-.68c-.08-.13-.04-.29.09-.37.13-.08.29-.04.37.09l.42.68.42-.26-.42-.68c-.08-.13-.04-.29.09-.37.13-.08.29-.04.37.09l.42.68.42-.26-.42-.68c-.08-.13-.04-.29.09-.37ZM296.79,189.33c-.13.08-.29.04-.37-.09l-.42-.68.46-.29.42.68c.08.13.04.29-.09.37Z"/>
    <polygon class="st7" points="292.04 197.26 289.88 193.18 294.6 190.69 296.94 194.58 292.04 197.26"/>
    <path class="st8" d="M294.51,191.87l1.54,2.48-2.26,1.41s.72-.96.78-1.91c.06-.95-.37-1.79-.37-1.79l.31-.19Z"/>
    <path class="st7" d="M306.78,192.81l5.25-3.45-3.35-5.39-.06-.1-3.35-5.39-5.41,3.18c-.55.33-.97.85-1.2,1.5l-1.48,4.17,1.7,2.67,1.64,2.7,4.39.52c.69.08,1.34-.06,1.88-.42Z"/>
    <g>
      <polygon class="st1" points="298.09 188.75 297.18 187.33 297.17 187.35 298.47 189.39 298.09 188.75"/>
      <path class="st1" d="M306.78,192.82l5.25-3.45-.78-1.26-5.25,3.45c-.54.35-1.19.5-1.88.42l-4.37-.51.76,1.26,4.39.52c.69.08,1.34-.06,1.88-.42Z"/>
    </g>
    <rect class="st7" x="294.52" y="189.16" width="8.75" height="1.67" transform="translate(302.31 -164.16) rotate(58.11)"/>
    <polygon class="st1" points="296.77 188.09 299.88 193.09 299.54 193.3 296.6 188.19 296.77 188.09"/>
    <rect class="st8" x="303.34" y="184.08" width="8.25" height="1.08" rx=".35" ry=".35" transform="translate(301.79 -173.97) rotate(58.11)"/>
    <rect class="st8" x="302.02" y="184.9" width="8.25" height="1.08" rx=".35" ry=".35" transform="translate(301.87 -172.47) rotate(58.11)"/>
    <g class="st0">
      <path class="st2" d="M305.05,179.69c-.23,0-.4.14-.57.28-1.04.87-2.13,1.7-3.44,2.11-.21.06-.43.12-.57.28-.15.16-.19.46-.04.67.13.18.35.24.53.2.18-.04.32-.15.45-.26.98-.78,2.05-1.43,3.19-1.95.29-.13.79-.3.93-.64.13-.32-.11-.71-.49-.71Z"/>
    </g>
    <g class="st0">
      <path class="st2" d="M297.21,186.46c-.26-.06-.5.19-.43.48.06.26.29.46.47.66.38.42.62.95.92,1.43.17.26.35.51.55.75.17.2.41.43.6.34.12-.05.17-.22.14-.38-.03-.16-.12-.31-.21-.45-.37-.56-.85-1.03-1.22-1.58-.23-.35-.38-1.14-.81-1.25Z"/>
    </g>
  </g>
  <path class="st6" d="M102.69,61.98c-1.3-8.78,3.1-5.5,7.06-7.43,3.47-1.69,4.71-19.4-1.66-18.82-3.9.35-8.2,5.85-12.26,7.25-15.28,5.28-15.35-15.02-13.5-24.85l6.27.79c-1.77,3.73-2.78,20.01,3.21,19.18,6.33-.87,17.5-15.86,24.53-3.47,3.48,6.13.55,18.07,1.23,18.74.39.39,7.02-.99,9.74,3.96l9.45,36.75c1.13-1.63-.56-6.32,1.12-7.49,2.09-1.46,15.45.68,17.18-.44.46-.3,2.05-7.98,2.54-8.42.83-.73,21-.35,22.1.03,2.23.76,4.31,10.68,5.23,13.18,1.76-.12.28-4.22.77-4.7,1-.99,13.13,1.56,15.3,2.33,6.38,2.24,10.61,6.91,12.48,13.36.53,1.82,1.98,8.28,1.98,9.77v108.46H42c-.34,0-4.08-3.14-5.58-3.82-4.19-1.89-8.33-2.26-12.87-1.32-5.39,1.11-11.22,8.29-16.29,3.85l-.14-112.69c.39-9.7,8.01-18.61,17.71-19.87,2.34-.31,21.47-.86,22.26-.07.45.44-.94,3.97.77,3.92.75-2.74,2.4-12.03,5.09-12.53,5.86-1.1,14.79.86,21.03-.03,2.31,2.7,1.45,8.18,5.56,8.69,2.6.32,15.8.44,17.9-.07,6.09-1.45,13.25-3.57,20.26-4.94,1.03-.2,3.8-.09,3.78-1.31h-21.93l.04-4.66,22.67-4.73h-21.14l.77-4.32,19.6-4.29h-18.79Z"/>
  <path class="st2" d="M166.75,119.36c42.24-2.93,46.73,61.53,6.02,65.55-45.09,4.46-49.75-62.51-6.02-65.55Z"/>
  <path class="st2" d="M14.2,104.66c1.37-6.79,10.75-10.85,17.27-9.44,3.27.71,10.14,6.19,10.14,9.44v108.46c-2.11-.5-3.41-1.83-5.65-2.57-7.78-2.58-15.05-.97-21.75,3.35v-109.24Z"/>
  <path class="st9" d="M17.33,105.05c2.5-.14,4.9-.43,4.74,2.7l.02,95.61c0,2.01-3.12,1.87-4.75,1.93v-100.24Z"/>
  <rect class="st9" x="25.95" y="101.13" width="3.92" height="101.8"/>
  <path class="st9" d="M37.69,105.05v100.24c-.77-.38-3.92-1.26-3.92-1.96v-98.28h3.92Z"/>
  <path class="st2" d="M91.24,147.4c0,.31-.13.61-.37.81l-5.95,5.27c-.45.73-1.52.73-1.97,0l-5.95-5.27c-.23-.21-.37-.5-.37-.81v-15.18h14.6v15.18Z"/>
  <path class="st2" d="M76.63,164.91c0-.31.13-.61.37-.81l5.95-5.27c.45-.73,1.52-.73,1.97,0l5.95,5.27c.23.21.37.5.37.81v15.18h-14.6v-15.18Z"/>
  <path class="st2" d="M92.96,163.56c-.31,0-.61-.13-.81-.37l-5.27-5.95c-.73-.45-.73-1.52,0-1.97l5.27-5.95c.21-.23.5-.37.81-.37h15.18v14.6h-15.18Z"/>
  <path class="st2" d="M74.75,148.87c.31,0,.61.13.81.37l5.27,5.95c.73.45.73,1.52,0,1.97l-5.27,5.95c-.21.23-.5.37-.81.37h-15.18v-14.6h15.18Z"/>
  <path class="st11" d="M164.68,126.82c15.38-4.58,15.51,20.71.19,15.93-7.21-2.25-6.57-14.03-.19-15.93Z"/>
  <circle class="st11" cx="167.98" cy="134.8" r="9.1"/>
  <circle class="st12" cx="187.93" cy="153.27" r="8.9"/>
  <circle class="st5" cx="167.98" cy="173.25" r="9.1"/>
  <circle class="st4" cx="149.69" cy="152.82" r="9.19"/>
  <path class="st10" d="M85.43,18.78s2.59-22.06,45.34-10.92c23.58,6.14,46.09,13.61,61.47,27.05,8.24,7.2,15.99,6.81,24.01,34.86,8.44,29.55,54.38,40.82,30.71,70.36-16.24,20.26-14.05,52.87.89,65.15,19.26,15.83,28.2-3.76,45.31-10.59"/>
  <g>
    <path class="st11" d="M375.97,216.68c-15.62,0-29.32-3.41-41.11-10.25-11.79-6.83-20.95-16.4-27.48-28.72-6.53-12.31-9.8-26.65-9.8-43.02,0-12.46,1.84-23.69,5.52-33.68,3.68-9.99,8.97-18.54,15.88-25.68,6.91-7.13,15.2-12.65,24.89-16.56,9.68-3.9,20.39-5.86,32.1-5.86,15.92,0,29.73,3.38,41.45,10.14s20.84,16.26,27.37,28.49c6.53,12.24,9.8,26.54,9.8,42.91,0,12.47-1.88,23.73-5.63,33.79-3.76,10.06-9.09,18.7-15.99,25.9-6.91,7.21-15.17,12.76-24.78,16.67-9.61,3.9-20.35,5.86-32.21,5.86ZM375.97,186.95c8.86,0,16.41-2.06,22.64-6.19,6.23-4.13,11.04-10.14,14.42-18.02,3.38-7.88,5.07-17.23,5.07-28.04,0-16.52-3.68-29.32-11.04-38.41-7.36-9.08-17.72-13.63-31.08-13.63-8.71,0-16.22,2.03-22.52,6.08-6.31,4.05-11.12,9.99-14.42,17.79-3.31,7.81-4.96,17.2-4.96,28.16,0,16.37,3.68,29.17,11.04,38.41,7.35,9.24,17.64,13.85,30.86,13.85Z"/>
    <g>
      <path class="st5" d="M511.72,209.78c-5.3,0-9.34-1.46-12.13-4.39-2.79-2.93-4.18-7.04-4.18-12.34v-105.81h-37.01c-4.32,0-7.67-1.18-10.04-3.56-2.37-2.37-3.55-5.65-3.55-9.83s1.18-7.63,3.55-9.93c2.37-2.3,5.71-3.45,10.04-3.45h106.43c4.32,0,7.67,1.15,10.04,3.45,2.37,2.3,3.56,5.61,3.56,9.93s-1.19,7.46-3.56,9.83c-2.37,2.37-5.72,3.56-10.04,3.56h-37.01v105.81c0,5.3-1.36,9.41-4.08,12.34s-6.73,4.39-12.02,4.39Z"/>
      <path class="st4" d="M599.75,209.78c-5.3,0-9.38-1.46-12.23-4.39-2.86-2.93-4.29-7.18-4.29-12.76v-115.22c0-5.44,1.46-9.62,4.39-12.55,2.93-2.93,7.11-4.39,12.55-4.39h71.51c4.18,0,7.35,1.08,9.51,3.24,2.16,2.16,3.24,5.26,3.24,9.31s-1.08,7.35-3.24,9.51c-2.16,2.16-5.33,3.24-9.51,3.24h-56.04v35.97h51.44c4.18,0,7.39,1.08,9.62,3.24,2.23,2.16,3.35,5.26,3.35,9.31s-1.12,7.18-3.35,9.41c-2.23,2.23-5.44,3.35-9.62,3.35h-51.44v45.58c0,11.43-5.3,17.15-15.89,17.15Z"/>
      <path class="st12" d="M712.59,209.78c-5.3,0-9.34-1.46-12.13-4.39-2.79-2.93-4.18-7.04-4.18-12.34v-117.73c0-5.3,1.39-9.41,4.18-12.34,2.79-2.93,6.83-4.39,12.13-4.39s9.13,1.46,11.92,4.39c2.79,2.93,4.18,7.04,4.18,12.34v117.73c0,5.3-1.36,9.41-4.08,12.34s-6.73,4.39-12.02,4.39Z"/>
      <path class="st3" d="M759.57,207.89c-5.3,0-9.38-1.46-12.23-4.39-2.86-2.93-4.29-6.97-4.29-12.13v-114.8c0-5.44,1.39-9.55,4.18-12.34,2.79-2.79,6.83-4.18,12.13-4.18s9.13,1.4,11.92,4.18c2.79,2.79,4.18,6.9,4.18,12.34v103.93h56.04c4.46,0,7.91,1.19,10.35,3.55,2.44,2.37,3.66,5.72,3.66,10.04s-1.22,7.88-3.66,10.25c-2.44,2.37-5.89,3.55-10.35,3.55h-71.93Z"/>
    </g>
  </g>
</svg>